<svg width="21" height="12" viewBox="0 0 21 12" fill="none" xmlns="http://www.w3.org/2000/svg">
<path d="M1.94876 7.318C1.85923 7.56242 1.67793 7.76229 1.44337 7.87516C1.20882 7.98803 0.9395 8.00499 0.692639 7.92244C0.445777 7.83989 0.240831 7.66434 0.121347 7.43309C0.00186218 7.20184 -0.0227435 6.93311 0.052758 6.684C0.032758 6.744 0.052758 6.682 0.052758 6.682C0.08842 6.57191 0.12981 6.46377 0.176758 6.358C0.256758 6.168 0.374758 5.906 0.536758 5.596C0.864758 4.976 1.38076 4.15 2.13676 3.324C3.67076 1.654 6.17676 0 10.0008 0C13.8268 0 16.3328 1.654 17.8628 3.324C18.6796 4.21982 19.3419 5.2451 19.8228 6.358C19.8628 6.452 19.8928 6.528 19.9128 6.584C19.9208 6.6 19.9408 6.704 19.9608 6.804C19.9788 6.896 19.9948 6.984 20.0008 7C20.0008 7 20.1688 7.666 19.3168 7.948C19.0658 8.03179 18.792 8.01275 18.5551 7.89505C18.3182 7.77735 18.1375 7.57057 18.0528 7.32V7.314L18.0388 7.282C17.9383 7.02508 17.8234 6.77401 17.6948 6.53C17.3398 5.85915 16.9009 5.23615 16.3888 4.676C15.1688 3.346 13.1748 2 10.0008 2C6.82676 2 4.83276 3.346 3.61276 4.676C2.95224 5.40014 2.41509 6.22781 2.02276 7.126C2.00176 7.17761 1.98176 7.22962 1.96276 7.282L1.94876 7.318Z" fill="black"/>
<path d="M6 7.99998C6 6.93911 6.42143 5.9217 7.17157 5.17155C7.92172 4.42141 8.93913 3.99998 10 3.99998C11.0609 3.99998 12.0783 4.42141 12.8284 5.17155C13.5786 5.9217 14 6.93911 14 7.99998C14 9.06084 13.5786 10.0783 12.8284 10.8284C12.0783 11.5786 11.0609 12 10 12C8.93913 12 7.92172 11.5786 7.17157 10.8284C6.42143 10.0783 6 9.06084 6 7.99998Z" fill="black"/>
</svg>
