<svg width="36" height="36" viewBox="0 0 36 36" fill="none" xmlns="http://www.w3.org/2000/svg">
<path d="M18 34.5C27.1127 34.5 34.5 27.1127 34.5 18C34.5 8.8873 27.1127 1.5 18 1.5C8.88731 1.5 1.5 8.8873 1.5 18C1.5 27.1127 8.88731 34.5 18 34.5Z" fill="#23CD67" stroke="white" stroke-width="3"/>
<path d="M24.48 22.86H12.52C12.2324 22.86 12 23.0745 12 23.34V23.88C12 23.946 12.0585 24 12.13 24H24.87C24.9415 24 25 23.946 25 23.88V23.34C25 23.0745 24.7676 22.86 24.48 22.86ZM14.3676 21.6C14.4001 21.6 14.4326 21.597 14.4651 21.5925L17.1984 21.15C17.2309 21.144 17.2618 21.1305 17.2845 21.108L24.1729 14.7495C24.188 14.7356 24.1999 14.7191 24.2081 14.701C24.2162 14.6828 24.2204 14.6634 24.2204 14.6438C24.2204 14.6241 24.2162 14.6047 24.2081 14.5865C24.1999 14.5684 24.188 14.5519 24.1729 14.538L21.4721 12.0435C21.4413 12.015 21.4006 12 21.3568 12C21.3129 12 21.2723 12.015 21.2414 12.0435L14.353 18.402C14.3286 18.4245 14.314 18.4515 14.3075 18.4815L13.8281 21.0045C13.8123 21.0849 13.818 21.1676 13.8446 21.2455C13.8712 21.3233 13.918 21.3941 13.9809 21.4515C14.0881 21.5475 14.223 21.6 14.3676 21.6Z" fill="white"/>
</svg>
