<svg width="36" height="36" viewBox="0 0 36 36" fill="none" xmlns="http://www.w3.org/2000/svg">
<path d="M18 34.5C27.1127 34.5 34.5 27.1127 34.5 18C34.5 8.8873 27.1127 1.5 18 1.5C8.88731 1.5 1.5 8.8873 1.5 18C1.5 27.1127 8.88731 34.5 18 34.5Z" fill="#23CD67" stroke="white" stroke-width="3"/>
<path d="M23.5 14H21.5V12.75C21.5 12.1984 21.0516 11.75 20.5 11.75H15.5C14.9484 11.75 14.5 12.1984 14.5 12.75V14H12.5C12.2234 14 12 14.2234 12 14.5V15C12 15.0687 12.0562 15.125 12.125 15.125H13.0687L13.4547 23.2969C13.4797 23.8297 13.9203 24.25 14.4531 24.25H21.5469C22.0813 24.25 22.5203 23.8313 22.5453 23.2969L22.9312 15.125H23.875C23.9438 15.125 24 15.0687 24 15V14.5C24 14.2234 23.7766 14 23.5 14ZM20.375 14H15.625V12.875H20.375V14Z" fill="white"/>
</svg>
