<svg width="16" height="16" viewBox="0 0 16 16" fill="none" xmlns="http://www.w3.org/2000/svg">
<g clip-path="url(#clip0)">
<path d="M15.6671 4.338C15.5765 4.01482 15.4 3.72223 15.1564 3.49133C14.9059 3.25334 14.5989 3.08309 14.2644 2.99667C13.0124 2.66667 7.99641 2.66667 7.99641 2.66667C5.9053 2.64287 3.8147 2.74752 1.73641 2.98C1.40187 3.07281 1.09545 3.24686 0.844411 3.48667C0.597745 3.724 0.419078 4.01667 0.325745 4.33733C0.10154 5.54516 -0.00739386 6.77156 0.000411455 8C-0.00758854 9.22733 0.101078 10.4533 0.325745 11.6627C0.417078 11.982 0.595078 12.2733 0.842411 12.5087C1.08974 12.744 1.39774 12.914 1.73641 13.004C3.00508 13.3333 7.99641 13.3333 7.99641 13.3333C10.0902 13.3572 12.1835 13.2525 14.2644 13.02C14.5989 12.9336 14.9059 12.7633 15.1564 12.5253C15.4031 12.29 15.5784 11.9973 15.6664 11.6787C15.8965 10.4713 16.0083 9.24439 16.0004 8.01533C16.0177 6.78107 15.906 5.54838 15.6671 4.33733V4.338ZM6.40174 10.2827V5.718L10.5751 8.00067L6.40174 10.2827Z" fill="#C5C5C5"/>
</g>
<defs>
<clipPath id="clip0">
<rect width="16" height="16" fill="white"/>
</clipPath>
</defs>
</svg>
