<svg width="17" height="16" viewBox="0 0 17 16" fill="none" xmlns="http://www.w3.org/2000/svg">
<path d="M5.95 13.2089L7.65 14.0978V8.24C7.64906 8.00681 7.56053 7.78334 7.4035 7.61778L1.8955 1.77778H15.1215L9.622 7.61778C9.46497 7.78334 9.37644 8.00681 9.3755 8.24L9.35 15.1111L11.05 16V8.60444L16.643 2.66667C16.8667 2.4293 16.9946 2.11102 17 1.77778V0.888889C17 0.653141 16.9104 0.427049 16.751 0.26035C16.5916 0.0936507 16.3754 0 16.15 0H0.85C0.624566 0 0.408365 0.0936507 0.248959 0.26035C0.0895535 0.427049 0 0.653141 0 0.888889V1.77778C0.00543788 2.11102 0.133268 2.4293 0.357 2.66667L5.95 8.60444V13.2089Z" fill="white"/>
</svg>
