<svg width="15" height="16" viewBox="0 0 15 16" fill="none" xmlns="http://www.w3.org/2000/svg">
<path d="M10.3387 8.01527L13.5411 4.79895C13.9701 4.36805 14.2 3.78326 14.2 3.19848C14.2 2.61369 13.9854 2.0443 13.5411 1.59801C13.1121 1.16712 12.5298 0.936279 11.9476 0.936279C11.3653 0.936279 10.7984 1.15173 10.354 1.59801L7.15168 4.81433L3.9493 1.59801C3.52028 1.16712 2.93803 0.936279 2.35578 0.936279C1.77353 0.936279 1.20661 1.15173 0.762259 1.59801C0.70097 1.65957 0.62436 1.73651 0.563071 1.82885C0.501781 1.90579 0.440486 1.99813 0.394519 2.07507C0.287263 2.24435 0.210655 2.42902 0.149366 2.62908C0.0880762 2.82914 0.0727539 3.0292 0.0727539 3.22926V12.8167C0.0727539 13.4322 0.333232 14.0016 0.731613 14.4017C1.14532 14.8173 1.69692 15.0635 2.30981 15.0635H2.32514C2.61626 15.0635 2.90739 15.0019 3.18319 14.8942C3.44367 14.7865 3.70414 14.6172 3.91866 14.4017L4.24043 14.0786C4.25576 14.0632 4.28639 14.0478 4.30172 14.0324L7.12103 11.1854L10.3234 14.4017C10.7677 14.8326 11.3347 15.0635 11.9169 15.0635C12.4992 15.0635 13.0661 14.848 13.5104 14.4017C13.9395 13.9709 14.1693 13.3861 14.1693 12.8013C14.1693 12.2165 13.9548 11.6471 13.5104 11.2008L10.3387 8.01527ZM2.96867 14.3094C2.76948 14.3864 2.55497 14.4325 2.35578 14.4325C1.92675 14.4325 1.51305 14.2479 1.23725 13.9555C0.946124 13.6631 0.762259 13.263 0.762259 12.8321V3.24465C0.762259 3.09075 0.777576 2.95225 0.823543 2.81375C0.86951 2.67525 0.915483 2.53675 0.992094 2.41363V2.39824C1.02274 2.33669 1.0687 2.27513 1.11467 2.21358C1.16064 2.16741 1.20661 2.10585 1.25258 2.05968C1.55902 1.7519 1.97272 1.59801 2.38642 1.59801C2.80013 1.59801 3.19851 1.7519 3.52028 2.05968L6.73797 5.2914L5.8033 6.23013L2.47836 2.85992C2.41707 2.78297 2.32513 2.75219 2.2332 2.75219C2.04933 2.75219 1.91143 2.90609 1.91143 3.07537V6.38402V7.10731C1.78886 7.15348 1.68159 7.21504 1.58966 7.30737L1.57434 7.32276C1.4058 7.49204 1.29854 7.73827 1.29854 7.99988C1.29854 8.24611 1.39048 8.47694 1.55902 8.64622L1.57434 8.66161C1.66628 8.75395 1.78885 8.83089 1.92675 8.87706V9.50801V12.9244C1.92675 13.0013 1.9574 13.0937 2.01869 13.1552C2.14127 13.2783 2.35578 13.2783 2.47836 13.1552L11.4879 4.07566C11.6105 4.13721 11.7484 4.16799 11.9016 4.16799C12.1468 4.16799 12.3766 4.07566 12.5451 3.90638L12.5605 3.89099C12.729 3.72171 12.8363 3.47548 12.8363 3.21387C12.8363 2.96764 12.7443 2.73681 12.5758 2.56753L12.5605 2.55214C12.3919 2.38286 12.1468 2.27513 11.8863 2.27513C11.6411 2.27513 11.4113 2.36747 11.2427 2.53675L11.2274 2.55214C11.0589 2.72142 10.9516 2.96764 10.9516 3.22926C10.9516 3.36776 10.9823 3.49087 11.0282 3.61399C11.0282 3.61399 11.0129 3.61398 11.0129 3.62937L2.57029 12.1395V9.5234V8.90784C2.69287 8.86167 2.80012 8.80011 2.89206 8.70778L2.90739 8.69239C3.07593 8.52311 3.18319 8.27688 3.18319 8.01527C3.18319 7.76904 3.09125 7.53821 2.92271 7.36893L2.90739 7.35354C2.81545 7.2612 2.69287 7.18426 2.57029 7.13809V6.4148V3.89099L3.50495 4.84511V8.70778C3.50495 8.89245 3.65818 9.03095 3.82673 9.03095C3.91866 9.03095 3.99527 9.00017 4.05656 8.93861L9.32744 3.64476C9.35809 3.61398 9.37341 3.58321 9.38874 3.55243L10.8444 2.09046C11.1508 1.78268 11.5645 1.62879 11.9782 1.62879C12.3919 1.62879 12.7903 1.78268 13.1121 2.09046C13.4185 2.39824 13.5717 2.81375 13.5717 3.22926C13.5717 3.64476 13.4185 4.04488 13.1121 4.36805L11.0129 6.47636C10.9823 6.49175 10.9669 6.50714 10.9516 6.52253L7.05974 10.4467L6.96781 10.5391L3.48963 13.9555C3.33641 14.1094 3.16786 14.2325 2.96867 14.3094ZM4.11785 5.49146L5.313 6.70719L4.11785 7.90754V5.49146ZM2.52433 7.6921L2.41707 7.79982L2.43239 7.81521C2.47836 7.86138 2.509 7.93832 2.509 8.01527C2.509 8.06144 2.49369 8.1076 2.47836 8.13838C2.46304 8.16916 2.44771 8.19994 2.41707 8.21533L2.64691 8.44616L2.53965 8.33844L2.41707 8.21533L2.40175 8.23072C2.35578 8.27688 2.27917 8.30766 2.20255 8.30766C2.12594 8.30766 2.04934 8.27688 1.98805 8.21533L1.88079 8.32305L1.75821 8.44616L1.98805 8.21533L1.97272 8.19994C1.92675 8.15377 1.89611 8.07683 1.89611 7.99988C1.89611 7.98449 1.89611 7.95371 1.89611 7.93832C1.91143 7.87677 1.94207 7.8306 1.97272 7.78443L1.89611 7.70749L1.74288 7.55359L1.86547 7.67671L1.97272 7.78443L1.98805 7.76904C2.03401 7.72288 2.11062 7.6921 2.18724 7.6921C2.26385 7.6921 2.34046 7.72288 2.40175 7.78443L2.52433 7.6921ZM12.0855 3.05998C12.1314 3.10614 12.1621 3.18309 12.1621 3.26004C12.1621 3.33698 12.1314 3.41393 12.0701 3.47548L12.0548 3.49087C12.0089 3.53704 11.9322 3.56782 11.8556 3.56782C11.779 3.56782 11.7024 3.53704 11.6411 3.47548L11.6258 3.46009C11.5798 3.41393 11.5492 3.33698 11.5492 3.26004C11.5492 3.18309 11.5798 3.10614 11.6411 3.04459L11.6564 3.0292C11.7024 2.98303 11.779 2.95225 11.8556 2.95225C11.9476 2.96764 12.0089 2.99842 12.0855 3.05998ZM13.0814 13.9555C12.775 14.2632 12.3613 14.4171 11.9476 14.4171C11.5339 14.4171 11.1355 14.2632 10.8137 13.9555L7.62667 10.7391L8.53069 9.83118L11.0282 12.3704C10.9516 12.5089 10.921 12.6628 10.921 12.8167C10.921 13.0629 11.0129 13.2937 11.1815 13.463L11.1968 13.4784C11.3653 13.6477 11.6105 13.7554 11.871 13.7554C12.1161 13.7554 12.346 13.6631 12.5145 13.4938L12.5298 13.4784C12.6984 13.3091 12.8056 13.0629 12.8056 12.8013C12.8056 12.5551 12.7137 12.3242 12.5451 12.1549L12.5298 12.1395C12.3613 11.9703 12.1161 11.8625 11.8556 11.8625C11.733 11.8625 11.6258 11.8933 11.5185 11.9241L8.99036 9.35412L9.87905 8.46155L13.0967 11.6933C13.4032 12.001 13.5564 12.4166 13.5564 12.8321C13.5411 13.2322 13.3879 13.6477 13.0814 13.9555ZM11.6564 12.6012C11.7177 12.5397 11.7943 12.5089 11.871 12.5089C11.9476 12.5089 12.0242 12.5397 12.0855 12.6012L12.3153 12.3704L12.0701 12.6012L12.0855 12.6166C12.1314 12.6628 12.1621 12.7397 12.1621 12.8167C12.1621 12.8936 12.1314 12.9706 12.0701 13.0321L12.0548 13.0475C12.0089 13.0937 11.9322 13.1245 11.8556 13.1245C11.779 13.1245 11.7024 13.0937 11.6411 13.0321L11.6258 13.0167C11.5798 12.9706 11.5492 12.8936 11.5492 12.8167C11.5645 12.7243 11.5952 12.6628 11.6564 12.6012Z" fill="white"/>
</svg>
