<svg width="6" height="6" viewBox="0 0 6 6" fill="none" xmlns="http://www.w3.org/2000/svg">
<path d="M0.5 6C0.5 6 0 6 0 5.5C0 5 0.5 3.5 3 3.5C5.5 3.5 6 5 6 5.5C6 6 5.5 6 5.5 6H0.5ZM3 3C3.39782 3 3.77936 2.84196 4.06066 2.56066C4.34196 2.27936 4.5 1.89782 4.5 1.5C4.5 1.10218 4.34196 0.720644 4.06066 0.43934C3.77936 0.158035 3.39782 0 3 0C2.60218 0 2.22064 0.158035 1.93934 0.43934C1.65804 0.720644 1.5 1.10218 1.5 1.5C1.5 1.89782 1.65804 2.27936 1.93934 2.56066C2.22064 2.84196 2.60218 3 3 3Z" fill="#9B9B9B"/>
</svg>
