<svg width="16" height="14" viewBox="0 0 16 14" fill="none" xmlns="http://www.w3.org/2000/svg">
<path fill-rule="evenodd" clip-rule="evenodd" d="M3.18087 0.701612L3.17212 1.1129L1.58618 1.12126L0.000244141 1.12961V1.49468C0.000244141 4.93264 1.78374 7.25193 4.44178 7.27055L4.96143 7.27419L5.16368 7.53226C5.63128 8.1289 6.23865 8.63871 6.8019 8.90732L7.06274 9.03171V10.2094V11.3871H5.90649H4.75024V12.129V12.871H4.35962H3.96899V13.2903V13.7097H8.00024H12.0315V13.2903V12.871H11.6409H11.2502V12.129V11.3871H10.094H8.93774V10.2094V9.03171L9.19859 8.90732C9.76184 8.63871 10.3692 8.1289 10.8368 7.53226L11.0391 7.27419L11.5587 7.27055C14.2155 7.25193 16.0002 4.931 16.0002 1.49468V1.12961L14.4143 1.12126L12.8284 1.1129L12.8196 0.701612L12.8109 0.290321H8.00024H3.18962L3.18087 0.701612ZM3.28834 2.66129C3.43268 3.87506 3.69834 4.86942 4.12637 5.79839L4.30846 6.19355H4.20468C3.39296 6.19355 2.47528 5.66358 1.97034 4.90322C1.53696 4.25058 1.09559 2.9139 1.09412 2.24958C1.09399 2.19619 1.15962 2.19322 2.16431 2.20119L3.23462 2.20968L3.28834 2.66129ZM14.9065 2.25487C14.9065 4.23219 13.3562 6.19355 11.7933 6.19355H11.6871L11.8243 5.91129C12.2737 4.98642 12.5906 3.81313 12.7196 2.59677C12.7403 2.40161 12.7636 2.23103 12.7712 2.21774C12.8077 2.15442 14.9065 2.1909 14.9065 2.25487Z" fill="#BCB9B4"/>
</svg>
