<svg width="17" height="16" viewBox="0 0 17 16" fill="none" xmlns="http://www.w3.org/2000/svg">
<path d="M17 14.72C17 15.136 16.86 15.4533 16.58 15.672C16.2999 15.8907 15.9563 16 15.549 16H1.45103C1.04373 16 0.70006 15.888 0.420036 15.664C0.140012 15.44 0 15.1253 0 14.72C0 14.4 0.0916442 14.0747 0.274933 13.744L7.31626 0.88C7.65229 0.293333 8.04942 0 8.50764 0C8.96586 0 9.3528 0.293333 9.66846 0.88L16.7251 13.76C16.9084 14.1013 17 14.4213 17 14.72ZM9.56155 6.544V4.208H7.43845V6.544C7.43845 6.69333 7.44864 6.83467 7.469 6.968C7.48937 7.10133 7.51737 7.25067 7.55301 7.416C7.58865 7.58133 7.61665 7.72267 7.63702 7.84L8.03414 10.432H8.93531L9.34771 7.84C9.36807 7.73333 9.39862 7.59467 9.43935 7.424C9.48008 7.25333 9.51063 7.10133 9.531 6.968C9.55136 6.83467 9.56155 6.69333 9.56155 6.544ZM9.56155 12.736C9.56155 12.4267 9.45717 12.1653 9.24843 11.952C9.03968 11.7387 8.78766 11.632 8.49236 11.632C8.20725 11.632 7.96032 11.7387 7.75157 11.952C7.54283 12.1653 7.43845 12.4267 7.43845 12.736C7.43845 13.0453 7.54283 13.3093 7.75157 13.528C7.96032 13.7467 8.20725 13.856 8.49236 13.856C8.78766 13.856 9.03968 13.7467 9.24843 13.528C9.45717 13.3093 9.56155 13.0453 9.56155 12.736Z" fill="white"/>
</svg>
